<?xml version="1.0" encoding="UTF-8"?>
<svg id="Capa_1" xmlns="http://www.w3.org/2000/svg" version="1.1" viewBox="0 0 667.48 187.8">
  <!-- Generator: Adobe Illustrator 29.7.1, SVG Export Plug-In . SVG Version: 2.1.1 Build 8)  -->
  <defs>
    <style>
      .st0 {
        fill: #fff;
      }

      .st1 {
        fill: #b2b2b2;
      }
    </style>
  </defs>
  <path class="st0" d="M618.86,95.62c0,4.89.95,8.5,2.88,10.82,1.91,2.34,4.31,3.52,7.2,3.52s5.33-1.16,7.2-3.47c1.89-2.3,2.82-5.98,2.82-11.08,0-4.73-.95-8.27-2.84-10.59-1.89-2.3-4.24-3.47-7.03-3.47-2.96,0-5.41,1.18-7.34,3.52-1.92,2.36-2.89,5.94-2.89,10.75M598.52,95.67c0-8.34,2.72-15.23,8.17-20.63,5.46-5.42,12.81-8.13,22.09-8.13,10.6,0,18.62,3.18,24.03,9.53,4.36,5.12,6.53,11.43,6.53,18.93,0,8.41-2.71,15.3-8.1,20.69-5.4,5.37-12.87,8.06-22.42,8.06-8.51,0-15.38-2.23-20.64-6.7-6.45-5.52-9.67-12.77-9.67-21.74ZM580.18,47.33v20.83h11.16v15.3h-11.16v19.42c0,2.34.22,3.89.65,4.64.66,1.16,1.82,1.76,3.49,1.76,1.5,0,3.59-.46,6.28-1.35l1.5,14.49c-5.02,1.13-9.7,1.69-14.06,1.69-5.06,0-8.78-.67-11.16-2.01-2.4-1.34-4.17-3.38-5.31-6.1-1.16-2.73-1.72-7.16-1.72-13.28v-19.26h-7.49v-15.3h7.49v-10.06l20.34-10.77ZM543.38,122.88h-18.96v-8.87c-2.83,3.64-5.67,6.24-8.54,7.78-2.88,1.55-6.42,2.32-10.6,2.32-5.58,0-9.96-1.72-13.14-5.17-3.17-3.45-4.75-8.78-4.75-15.95v-34.83h20.39v30.1c0,3.43.61,5.88,1.84,7.32,1.24,1.44,2.96,2.16,5.19,2.16,2.43,0,4.41-.97,5.96-2.88,1.55-1.94,2.31-5.38,2.31-10.36v-26.33h20.3v54.72ZM439.92,95.67c0,4.33.87,7.55,2.64,9.64,1.75,2.09,3.98,3.15,6.67,3.15,2.37,0,4.34-1,5.94-3.03,1.6-2,2.4-5.42,2.4-10.22,0-4.43-.83-7.69-2.5-9.76-1.65-2.09-3.69-3.13-6.07-3.13-2.6,0-4.77,1.05-6.48,3.15-1.74,2.09-2.59,5.51-2.59,10.2ZM419.57,143.71v-75.55h18.99v8.09c2.64-3.41,5.04-5.72,7.23-6.91,2.96-1.62,6.23-2.43,9.82-2.43,7.08,0,12.56,2.81,16.44,8.41,3.86,5.59,5.8,12.52,5.8,20.77,0,9.09-2.11,16.04-6.33,20.84-4.22,4.78-9.57,7.18-16,7.18-3.13,0-5.99-.55-8.56-1.64-2.57-1.11-4.88-2.74-6.91-4.91v26.14h-20.49ZM317.5,68.16h18.94v7.99c2.74-3.34,5.48-5.7,8.26-7.12,2.77-1.41,6.13-2.11,10.06-2.11,4.22,0,7.56.77,10.01,2.32,2.47,1.55,4.48,3.85,6.04,6.91,3.18-3.57,6.09-6.02,8.73-7.3,2.62-1.28,5.86-1.93,9.72-1.93,5.68,0,10.13,1.74,13.31,5.24,3.2,3.48,4.78,8.94,4.78,16.36v34.37h-20.34v-31.17c0-2.48-.46-4.33-1.4-5.52-1.36-1.88-3.06-2.83-5.09-2.83-2.38,0-4.32.9-5.79,2.67-1.46,1.79-2.18,4.66-2.18,8.62v28.23h-20.36v-30.15c0-2.41-.14-4.03-.39-4.89-.44-1.37-1.19-2.48-2.25-3.32-1.07-.84-2.32-1.27-3.74-1.27-2.33,0-4.24.91-5.74,2.73-1.5,1.83-2.25,4.82-2.25,8.97v27.93h-20.34v-54.72ZM267.09,95.62c0,4.89.95,8.5,2.88,10.82,1.91,2.34,4.31,3.52,7.2,3.52s5.33-1.16,7.2-3.47c1.89-2.3,2.82-5.98,2.82-11.08,0-4.73-.95-8.27-2.84-10.59-1.89-2.3-4.24-3.47-7.03-3.47-2.96,0-5.41,1.18-7.33,3.52-1.92,2.36-2.89,5.94-2.89,10.75ZM246.75,95.67c0-8.34,2.72-15.23,8.17-20.63,5.46-5.42,12.82-8.13,22.09-8.13,10.6,0,18.62,3.18,24.03,9.53,4.36,5.12,6.53,11.43,6.53,18.93,0,8.41-2.71,15.3-8.1,20.69-5.4,5.37-12.87,8.06-22.42,8.06-8.51,0-15.38-2.23-20.64-6.7-6.45-5.52-9.67-12.77-9.67-21.74ZM220.63,101.49l19.28,2.27c-1.05,4.15-2.81,7.76-5.23,10.8-2.43,3.04-5.53,5.4-9.31,7.09-3.76,1.67-8.56,2.52-14.38,2.52s-10.3-.55-14.02-1.62c-3.74-1.09-6.96-2.83-9.65-5.26-2.71-2.43-4.82-5.26-6.33-8.53-1.53-3.25-2.3-7.58-2.3-12.98s.92-10.33,2.79-14.07c1.36-2.74,3.22-5.21,5.58-7.39,2.37-2.18,4.78-3.82,7.28-4.87,3.95-1.69,9.02-2.53,15.2-2.53,8.65,0,15.23,1.6,19.78,4.8,4.53,3.18,7.73,7.86,9.55,14.02l-19.1,2.62c-.6-2.34-1.69-4.1-3.27-5.28-1.58-1.2-3.69-1.78-6.37-1.78-3.35,0-6.08,1.25-8.15,3.73-2.08,2.5-3.11,6.26-3.11,11.31,0,4.5,1.04,7.92,3.1,10.25,2.06,2.34,4.68,3.5,7.88,3.5,2.66,0,4.88-.7,6.71-2.11,1.8-1.41,3.17-3.57,4.07-6.49Z"/>
  <g>
    <path class="st1" d="M264.82,163.37c-.51.46-1.13.7-1.89.7-.94,0-1.7-.35-2.28-1.03-.59-.69-.88-1.8-.88-3.32s.3-2.6.91-3.29c.6-.7,1.39-1.04,2.36-1.04.64,0,1.19.19,1.64.57.45.39.76.96.94,1.72l1.87-.29c-.22-1.15-.72-2.03-1.51-2.65-.78-.62-1.79-.94-3.02-.94-.97,0-1.88.23-2.7.69-.83.46-1.44,1.15-1.85,2.06-.4.92-.61,1.99-.61,3.21,0,1.89.47,3.35,1.42,4.36.94,1.01,2.19,1.52,3.74,1.52,1.24,0,2.28-.37,3.13-1.1.85-.73,1.38-1.75,1.58-3.05l-1.89-.25c-.14.96-.46,1.67-.96,2.13Z"/>
    <rect class="st1" x="382.24" y="154.06" width="1.92" height="11.33"/>
    <path class="st1" d="M377.74,163.37c-.51.46-1.13.7-1.89.7-.94,0-1.7-.35-2.28-1.03-.59-.69-.88-1.8-.88-3.32s.3-2.6.91-3.29c.6-.7,1.39-1.04,2.36-1.04.64,0,1.19.19,1.64.57.45.39.76.96.94,1.72l1.87-.29c-.22-1.15-.72-2.03-1.51-2.65-.78-.62-1.79-.94-3.02-.94-.97,0-1.88.23-2.7.69-.83.46-1.44,1.15-1.85,2.06-.4.92-.61,1.99-.61,3.21,0,1.89.47,3.35,1.42,4.36.94,1.01,2.19,1.52,3.74,1.52,1.24,0,2.28-.37,3.13-1.1.85-.73,1.38-1.75,1.58-3.05l-1.89-.25c-.14.96-.46,1.67-.96,2.13Z"/>
    <rect class="st1" x="382.24" y="149.75" width="1.92" height="2.21"/>
    <rect class="st1" x="366.46" y="149.75" width="1.92" height="2.21"/>
    <rect class="st1" x="269.32" y="154.06" width="1.92" height="11.33"/>
    <path class="st1" d="M278.76,153.81c-1.4,0-2.59.42-3.56,1.26-1.17,1.01-1.75,2.56-1.75,4.66,0,1.92.49,3.38,1.47,4.4.98,1.02,2.26,1.52,3.85,1.52.99,0,1.9-.23,2.74-.69.83-.46,1.47-1.11,1.91-1.95.44-.83.66-1.98.66-3.44,0-1.8-.49-3.21-1.48-4.23-.99-1.02-2.26-1.53-3.82-1.53ZM281.14,162.98c-.63.73-1.43,1.09-2.38,1.09s-1.75-.36-2.39-1.08c-.63-.72-.95-1.81-.95-3.26s.32-2.53.95-3.25c.63-.72,1.43-1.08,2.39-1.08s1.74.36,2.37,1.08c.64.72.95,1.78.95,3.19,0,1.49-.32,2.59-.95,3.32Z"/>
    <path class="st1" d="M391.68,153.81c-1.4,0-2.59.42-3.56,1.26-1.17,1.01-1.75,2.56-1.75,4.66,0,1.92.49,3.38,1.47,4.4.98,1.02,2.26,1.52,3.85,1.52.99,0,1.9-.23,2.74-.69.83-.46,1.47-1.11,1.91-1.95.44-.83.66-1.98.66-3.44,0-1.8-.49-3.21-1.48-4.23-.99-1.02-2.26-1.53-3.82-1.53ZM394.06,162.98c-.63.73-1.43,1.09-2.38,1.09s-1.75-.36-2.39-1.08c-.63-.72-.95-1.81-.95-3.26s.32-2.53.95-3.25c.63-.72,1.43-1.08,2.39-1.08s1.74.36,2.37,1.08c.64.72.95,1.78.95,3.19,0,1.49-.32,2.59-.95,3.32Z"/>
    <path class="st1" d="M340.75,153.81c-1.57,0-2.84.53-3.82,1.58-.98,1.05-1.47,2.53-1.47,4.44s.48,3.27,1.46,4.29c.97,1.02,2.28,1.53,3.94,1.53,1.31,0,2.4-.32,3.24-.96.84-.64,1.42-1.54,1.74-2.7l-1.98-.24c-.29.81-.68,1.4-1.18,1.77-.5.37-1.1.56-1.8.56-.95,0-1.73-.33-2.37-.99-.63-.66-.99-1.61-1.06-2.86h8.45c0-.23.01-.4.01-.51,0-1.87-.48-3.32-1.44-4.35-.96-1.03-2.2-1.55-3.71-1.55ZM337.55,158.64c.07-.99.4-1.78,1-2.37.6-.59,1.34-.88,2.22-.88.97,0,1.77.37,2.38,1.11.4.47.64,1.19.72,2.14h-6.33Z"/>
    <path class="st1" d="M314.72,161.83c.59-.88,1.05-2,1.39-3.37l-2-.43c-.17.82-.43,1.55-.75,2.17l-2.8-3.57c1.97-1.05,2.95-2.32,2.95-3.81,0-.92-.34-1.7-1.02-2.36-.68-.65-1.55-.98-2.62-.98s-2.04.35-2.78,1.04c-.73.7-1.1,1.51-1.1,2.45,0,.47.12.96.35,1.46.23.51.7,1.17,1.41,1.97-1.24.59-2.17,1.27-2.79,2.05-.62.78-.93,1.65-.93,2.62,0,1.09.38,2.08,1.14,2.96.94,1.08,2.21,1.62,3.81,1.62.87,0,1.67-.17,2.42-.53.75-.35,1.44-.88,2.07-1.58.82.98,1.62,1.71,2.4,2.21l1.29-1.53c-.91-.65-1.72-1.45-2.44-2.4ZM308.49,151.57c.35-.34.78-.5,1.3-.5s.92.17,1.26.51c.34.33.51.77.51,1.3,0,.45-.12.86-.37,1.23-.24.37-.78.8-1.62,1.29l-.85-.99c-.25-.3-.44-.58-.56-.84-.12-.27-.19-.52-.19-.76,0-.49.17-.89.52-1.23ZM310.79,163.42c-.62.36-1.21.54-1.79.54-.93,0-1.64-.34-2.15-1.02-.5-.68-.76-1.34-.76-1.97,0-.52.18-1.04.55-1.57.36-.53,1.06-1.1,2.1-1.72l3.52,4.36c-.37.57-.86,1.03-1.48,1.39Z"/>
    <path class="st1" d="M294.81,155.14c-.28-.4-.71-.72-1.29-.97-.57-.24-1.2-.37-1.88-.37-1.57,0-2.77.62-3.6,1.87v-1.61h-1.73v11.33h1.92v-6.19c0-1.45.3-2.44.89-2.96.6-.52,1.3-.78,2.12-.78.51,0,.96.12,1.34.35.38.23.64.54.79.93.15.39.22.98.22,1.75v6.89h1.92v-6.97c0-.89-.04-1.51-.11-1.87-.12-.55-.31-1.02-.6-1.42Z"/>
    <path class="st1" d="M332.09,159.41c-.53-.23-1.48-.53-2.84-.89-.94-.26-1.5-.42-1.7-.49-.33-.14-.58-.31-.73-.51-.16-.2-.24-.42-.24-.67,0-.39.19-.73.57-1.02.38-.29,1-.44,1.89-.44.75,0,1.32.16,1.73.49.41.33.66.78.74,1.37l1.88-.26c-.12-.73-.34-1.31-.66-1.76-.32-.44-.82-.78-1.49-1.04-.67-.26-1.45-.39-2.34-.39-.59,0-1.14.08-1.66.23-.51.15-.92.34-1.22.56-.4.28-.71.64-.94,1.07-.23.43-.35.9-.35,1.4,0,.55.14,1.06.42,1.52.28.46.7.82,1.24,1.08.54.26,1.52.57,2.93.92,1.05.26,1.7.48,1.96.65.38.25.57.59.57,1.03,0,.48-.21.9-.64,1.26-.43.36-1.08.54-1.96.54s-1.56-.2-2.04-.61c-.49-.41-.79-.99-.89-1.75l-1.9.3c.21,1.2.7,2.11,1.48,2.72.77.61,1.89.92,3.37.92.89,0,1.69-.15,2.39-.46.7-.31,1.24-.75,1.62-1.31.37-.57.56-1.17.56-1.81s-.15-1.2-.46-1.64c-.31-.44-.73-.78-1.27-1.01Z"/>
    <rect class="st1" x="366.46" y="154.06" width="1.92" height="11.33"/>
    <path class="st1" d="M351.18,154.19c-.37.25-.78.79-1.22,1.59v-1.71h-1.73v11.33h1.92v-5.93c0-.81.11-1.56.32-2.24.14-.45.38-.8.71-1.05.33-.25.71-.38,1.13-.38.47,0,.94.14,1.41.42l.66-1.79c-.67-.41-1.33-.62-1.97-.62-.45,0-.86.13-1.23.39Z"/>
    <path class="st1" d="M360.26,160.98c-.31.84-.54,1.56-.71,2.15-.22-.79-.46-1.55-.73-2.28l-2.43-6.78h-2.03l4.31,11.33h1.79l4.29-11.33h-1.97l-2.52,6.91Z"/>
    <rect class="st1" x="269.32" y="149.75" width="1.92" height="2.21"/>
    <path class="st1" d="M219.31,153.81c-1.57,0-2.84.53-3.82,1.58-.98,1.05-1.47,2.53-1.47,4.44s.48,3.27,1.46,4.29c.97,1.02,2.28,1.53,3.94,1.53,1.31,0,2.4-.32,3.24-.96.84-.64,1.42-1.54,1.74-2.7l-1.98-.24c-.29.81-.68,1.4-1.18,1.77-.5.37-1.1.56-1.8.56-.95,0-1.73-.33-2.37-.99-.63-.66-.99-1.61-1.06-2.86h8.45c0-.23.01-.4.01-.51,0-1.87-.48-3.32-1.44-4.35-.96-1.03-2.2-1.55-3.71-1.55ZM216.11,158.64c.07-.99.4-1.78,1-2.37.6-.59,1.34-.88,2.23-.88.97,0,1.77.37,2.38,1.11.4.47.64,1.19.72,2.14h-6.33Z"/>
    <path class="st1" d="M545.64,160.64v-2.56c0-.85-.03-1.44-.09-1.77-.12-.53-.31-.96-.6-1.31-.29-.35-.73-.63-1.34-.86-.6-.23-1.39-.34-2.36-.34s-1.83.13-2.57.4c-.74.27-1.31.65-1.7,1.14-.39.49-.67,1.14-.84,1.94l1.87.26c.21-.81.52-1.37.95-1.68.43-.32,1.1-.47,2-.47.97,0,1.7.21,2.19.65.36.32.55.87.55,1.65,0,.07,0,.24-.01.5-.73.26-1.87.48-3.43.66-.76.09-1.33.19-1.7.29-.51.14-.97.35-1.38.63-.41.28-.74.65-.99,1.1-.25.46-.38.96-.38,1.52,0,.94.34,1.72,1,2.33.67.61,1.62.91,2.87.91.75,0,1.46-.12,2.12-.37.65-.25,1.34-.68,2.05-1.28.05.54.19,1,.38,1.4h2.01c-.24-.43-.4-.89-.48-1.36-.08-.47-.12-1.6-.12-3.39ZM543.7,160.41c0,.85-.1,1.49-.31,1.92-.27.56-.7,1.01-1.27,1.33-.58.32-1.23.48-1.97.48s-1.31-.17-1.7-.51c-.39-.34-.58-.77-.58-1.28,0-.34.09-.64.27-.91.18-.28.43-.48.76-.63.32-.14.88-.27,1.67-.38,1.39-.2,2.44-.44,3.14-.73v.71Z"/>
    <path class="st1" d="M406.15,159.41c-.53-.23-1.48-.53-2.84-.89-.94-.26-1.5-.42-1.7-.49-.33-.14-.58-.31-.73-.51-.16-.2-.24-.42-.24-.67,0-.39.19-.73.57-1.02.38-.29,1-.44,1.89-.44.75,0,1.32.16,1.73.49.41.33.66.78.74,1.37l1.88-.26c-.12-.73-.34-1.31-.66-1.76-.32-.44-.82-.78-1.49-1.04-.67-.26-1.45-.39-2.34-.39-.59,0-1.14.08-1.66.23-.51.15-.92.34-1.22.56-.4.28-.71.64-.94,1.07-.23.43-.35.9-.35,1.4,0,.55.14,1.06.42,1.52.28.46.7.82,1.24,1.08.54.26,1.52.57,2.93.92,1.05.26,1.7.48,1.96.65.38.25.57.59.57,1.03,0,.48-.21.9-.64,1.26-.43.36-1.08.54-1.96.54s-1.56-.2-2.04-.61c-.49-.41-.79-.99-.89-1.75l-1.9.3c.21,1.2.7,2.11,1.48,2.72.77.61,1.89.92,3.37.92.89,0,1.69-.15,2.39-.46.7-.31,1.24-.75,1.62-1.31.37-.57.56-1.17.56-1.81s-.15-1.2-.46-1.64c-.31-.44-.73-.78-1.27-1.01Z"/>
    <path class="st1" d="M255.41,160.64v-2.56c0-.85-.03-1.44-.09-1.77-.12-.53-.31-.96-.6-1.31-.29-.35-.73-.63-1.34-.86-.6-.23-1.39-.34-2.36-.34s-1.83.13-2.57.4c-.74.27-1.31.65-1.7,1.14-.39.49-.67,1.14-.84,1.94l1.87.26c.21-.81.52-1.37.95-1.68.43-.32,1.1-.47,2-.47.97,0,1.7.21,2.19.65.36.32.55.87.55,1.65,0,.07,0,.24-.01.5-.73.26-1.87.48-3.43.66-.76.09-1.33.19-1.7.29-.51.14-.97.35-1.38.63-.41.28-.74.65-.99,1.1-.25.46-.38.96-.38,1.52,0,.94.34,1.72,1,2.33.67.61,1.62.91,2.87.91.75,0,1.46-.12,2.12-.37.65-.25,1.34-.68,2.05-1.28.05.54.19,1,.38,1.4h2.01c-.24-.43-.4-.89-.48-1.36-.08-.47-.12-1.6-.12-3.39ZM253.47,160.41c0,.85-.1,1.49-.31,1.92-.27.56-.7,1.01-1.27,1.33-.57.32-1.23.48-1.97.48s-1.31-.17-1.7-.51c-.39-.34-.58-.77-.58-1.28,0-.34.09-.64.27-.91.18-.28.43-.48.76-.63.32-.14.88-.27,1.67-.38,1.39-.2,2.44-.44,3.14-.73v.71Z"/>
    <path class="st1" d="M555.84,155.36c-.33-.46-.77-.84-1.3-1.13-.53-.29-1.14-.43-1.82-.43-.93,0-1.78.25-2.53.74-.75.49-1.32,1.19-1.7,2.12-.37.92-.56,1.95-.56,3.08s.21,2.18.62,3.08c.42.9,1.01,1.59,1.76,2.09.76.5,1.59.75,2.49.75,1.4,0,2.45-.56,3.17-1.69v1.43h1.78v-15.64h-1.91v5.61ZM555.12,163.04c-.59.68-1.3,1.03-2.14,1.03s-1.56-.36-2.17-1.08c-.61-.72-.92-1.8-.92-3.26s.29-2.6.86-3.3c.57-.7,1.29-1.04,2.14-1.04s1.61.36,2.21,1.09c.6.72.9,1.86.9,3.41,0,1.41-.29,2.46-.88,3.14Z"/>
    <path class="st1" d="M234.29,155.43c-.87-1.08-1.97-1.62-3.31-1.62-1,0-1.88.25-2.62.75-.74.5-1.31,1.21-1.7,2.12-.39.91-.59,1.91-.59,2.99,0,1.57.43,2.92,1.28,4.04.85,1.12,2.06,1.69,3.62,1.69,1.25,0,2.3-.49,3.14-1.48,0,1.25-.04,2.07-.14,2.46-.17.64-.49,1.14-.98,1.49-.49.35-1.17.53-2.06.53-.82,0-1.47-.18-1.95-.53-.35-.27-.57-.69-.65-1.26l-1.87-.28c-.03,1.22.37,2.14,1.21,2.75.83.61,1.92.91,3.27.91,1.14,0,2.1-.22,2.88-.64.78-.43,1.35-1.01,1.71-1.74.36-.74.54-1.99.54-3.75v-9.79h-1.77v1.36ZM233.37,162.78c-.6.68-1.34,1.02-2.22,1.02s-1.63-.34-2.22-1.02c-.59-.68-.89-1.77-.89-3.25,0-1.37.3-2.4.9-3.09.6-.7,1.33-1.04,2.18-1.04s1.61.35,2.22,1.06c.62.7.92,1.75.92,3.14s-.3,2.52-.9,3.2Z"/>
    <rect class="st1" x="191.59" y="149.75" width="1.92" height="2.21"/>
    <rect class="st1" x="191.59" y="154.06" width="1.92" height="11.33"/>
    <path class="st1" d="M204.94,155.14c-.28-.4-.71-.72-1.29-.97-.57-.24-1.2-.37-1.88-.37-1.57,0-2.77.62-3.6,1.87v-1.61h-1.73v11.33h1.92v-6.19c0-1.45.29-2.44.89-2.96.6-.52,1.3-.78,2.12-.78.51,0,.96.12,1.34.35.38.23.64.54.79.93.15.39.22.98.22,1.75v6.89h1.92v-6.97c0-.89-.04-1.51-.11-1.87-.12-.55-.31-1.02-.6-1.42Z"/>
    <path class="st1" d="M211.94,163.75c-.28,0-.5-.05-.66-.14-.15-.09-.26-.22-.33-.38-.06-.16-.1-.51-.1-1.06v-6.62h1.93v-1.49h-1.93v-3.96l-1.91,1.15v2.81h-1.41v1.49h1.41v6.52c0,1.15.08,1.91.24,2.26.16.36.43.65.81.87.39.22.92.33,1.62.33.43,0,.91-.06,1.45-.17l-.28-1.7c-.35.05-.63.08-.84.08Z"/>
    <path class="st1" d="M241.89,154.19c-.37.25-.78.79-1.22,1.59v-1.71h-1.73v11.33h1.92v-5.93c0-.81.11-1.56.32-2.24.14-.45.38-.8.71-1.05.33-.25.71-.38,1.13-.38.47,0,.94.14,1.41.42l.66-1.79c-.67-.41-1.33-.62-1.97-.62-.45,0-.86.13-1.23.39Z"/>
    <path class="st1" d="M433.03,153.81c-1.57,0-2.84.53-3.82,1.58-.98,1.05-1.47,2.53-1.47,4.44s.48,3.27,1.46,4.29c.97,1.02,2.28,1.53,3.94,1.53,1.31,0,2.4-.32,3.24-.96.84-.64,1.42-1.54,1.74-2.7l-1.98-.24c-.29.81-.68,1.4-1.18,1.77-.5.37-1.1.56-1.8.56-.95,0-1.73-.33-2.37-.99-.63-.66-.99-1.61-1.06-2.86h8.45c0-.23.01-.4.01-.51,0-1.87-.48-3.32-1.44-4.35-.96-1.03-2.2-1.55-3.71-1.55ZM429.83,158.64c.07-.99.4-1.78,1-2.37.6-.59,1.34-.88,2.22-.88.97,0,1.77.37,2.38,1.11.4.47.64,1.19.73,2.14h-6.33Z"/>
    <path class="st1" d="M453.03,163.37c-.51.46-1.13.7-1.89.7-.94,0-1.7-.35-2.28-1.03-.59-.69-.88-1.8-.88-3.32s.3-2.6.91-3.29c.6-.7,1.39-1.04,2.36-1.04.64,0,1.19.19,1.64.57.45.39.76.96.94,1.72l1.87-.29c-.22-1.15-.73-2.03-1.51-2.65-.78-.62-1.79-.94-3.02-.94-.97,0-1.88.23-2.7.69-.83.46-1.44,1.15-1.85,2.06-.4.92-.61,1.99-.61,3.21,0,1.89.47,3.35,1.42,4.36.94,1.01,2.19,1.52,3.74,1.52,1.24,0,2.28-.37,3.13-1.1.85-.73,1.38-1.75,1.58-3.05l-1.89-.25c-.14.96-.46,1.67-.96,2.13Z"/>
    <path class="st1" d="M423.45,155.36c-.33-.46-.77-.84-1.3-1.13-.53-.29-1.14-.43-1.82-.43-.93,0-1.78.25-2.53.74-.75.49-1.32,1.19-1.7,2.12-.37.92-.56,1.95-.56,3.08s.21,2.18.62,3.08c.42.9,1.01,1.59,1.76,2.09.76.5,1.59.75,2.49.75,1.4,0,2.45-.56,3.17-1.69v1.43h1.78v-15.64h-1.91v5.61ZM422.73,163.04c-.59.68-1.3,1.03-2.14,1.03s-1.55-.36-2.17-1.08c-.61-.72-.92-1.8-.92-3.26s.29-2.6.86-3.3c.57-.7,1.29-1.04,2.14-1.04s1.61.36,2.21,1.09c.6.72.9,1.86.9,3.41,0,1.41-.29,2.46-.88,3.14Z"/>
    <path class="st1" d="M462.12,153.81c-1.4,0-2.59.42-3.56,1.26-1.17,1.01-1.75,2.56-1.75,4.66,0,1.92.49,3.38,1.47,4.4.98,1.02,2.26,1.52,3.85,1.52.99,0,1.9-.23,2.74-.69.83-.46,1.47-1.11,1.91-1.95.44-.83.66-1.98.66-3.44,0-1.8-.49-3.21-1.48-4.23-.99-1.02-2.26-1.53-3.82-1.53ZM464.5,162.98c-.63.73-1.43,1.09-2.38,1.09s-1.75-.36-2.39-1.08c-.63-.72-.95-1.81-.95-3.26s.32-2.53.95-3.25c.63-.72,1.43-1.08,2.39-1.08s1.74.36,2.37,1.08c.64.72.95,1.78.95,3.19,0,1.49-.32,2.59-.95,3.32Z"/>
    <path class="st1" d="M515.52,163.75c-.29,0-.5-.05-.66-.14-.15-.09-.26-.22-.33-.38-.07-.16-.1-.51-.1-1.06v-6.62h1.93v-1.49h-1.93v-3.96l-1.91,1.15v2.81h-1.41v1.49h1.41v6.52c0,1.15.08,1.91.24,2.26.16.36.43.65.81.87.39.22.93.33,1.62.33.43,0,.91-.06,1.45-.17l-.28-1.7c-.35.05-.63.08-.84.08Z"/>
    <path class="st1" d="M507.25,160.13c0,.96-.11,1.7-.32,2.21-.21.51-.56.91-1.07,1.21-.51.29-1.05.44-1.62.44s-1.06-.14-1.45-.43c-.39-.29-.64-.68-.77-1.19-.08-.35-.12-1.02-.12-2.03v-6.28h-1.92v7.02c0,.82.04,1.42.12,1.8.11.56.31,1.03.59,1.42.28.39.71.71,1.29.96.58.26,1.21.38,1.87.38,1.52,0,2.71-.64,3.6-1.92v1.66h1.71v-11.33h-1.92v6.07Z"/>
    <path class="st1" d="M522.84,153.81c-1.4,0-2.59.42-3.56,1.26-1.17,1.01-1.75,2.56-1.75,4.66,0,1.92.49,3.38,1.47,4.4.98,1.02,2.26,1.52,3.85,1.52.99,0,1.9-.23,2.74-.69.83-.46,1.47-1.11,1.91-1.95.44-.83.66-1.98.66-3.44,0-1.8-.49-3.21-1.48-4.23-.99-1.02-2.26-1.53-3.82-1.53ZM525.22,162.98c-.63.73-1.43,1.09-2.38,1.09s-1.75-.36-2.39-1.08c-.63-.72-.95-1.81-.95-3.26s.32-2.53.95-3.25c.63-.72,1.43-1.08,2.39-1.08s1.74.36,2.37,1.08c.64.72.95,1.78.95,3.19,0,1.49-.32,2.59-.95,3.32Z"/>
    <path class="st1" d="M495.47,154.55c-.74-.49-1.59-.75-2.56-.75-.74,0-1.37.15-1.89.43-.52.29-.99.72-1.4,1.3v-1.47h-1.75v15.67h1.92v-5.51c.33.41.74.75,1.25,1.02.51.27,1.08.4,1.72.4.88,0,1.71-.25,2.5-.74.79-.49,1.4-1.21,1.81-2.13.42-.93.63-1.97.63-3.13,0-1.08-.19-2.08-.57-2.98-.37-.91-.93-1.61-1.67-2.11ZM494.83,162.99c-.61.72-1.34,1.08-2.19,1.08s-1.55-.35-2.14-1.05c-.59-.7-.88-1.78-.88-3.23s.31-2.57.94-3.34c.63-.76,1.36-1.15,2.17-1.15s1.53.36,2.13,1.08c.59.72.89,1.8.89,3.24s-.31,2.63-.91,3.35Z"/>
    <path class="st1" d="M481.52,153.81c-1.43,0-2.6.66-3.5,1.98-.22-.63-.6-1.11-1.14-1.46-.53-.35-1.22-.52-2.06-.52-.75,0-1.43.17-2.02.51-.59.33-1.06.78-1.42,1.34v-1.59h-1.71v11.33h1.92v-5.88c0-1.03.1-1.82.31-2.37.2-.55.54-.96,1-1.25.46-.29.96-.43,1.5-.43.71,0,1.22.21,1.54.64.31.43.47,1.07.47,1.92v7.36h1.92v-6.58c0-1.16.27-2.01.79-2.54.53-.53,1.19-.8,1.99-.8.44,0,.83.11,1.15.31.32.21.55.48.68.82.12.34.19.89.19,1.66v7.14h1.91v-7.78c0-1.29-.3-2.25-.91-2.87-.6-.62-1.47-.94-2.59-.94Z"/>
    <rect class="st1" x="578.98" y="154.06" width="1.92" height="11.33"/>
    <path class="st1" d="M615.1,163.75c-.29,0-.5-.05-.66-.14-.15-.09-.26-.22-.33-.38-.07-.16-.1-.51-.1-1.06v-6.62h1.93v-1.49h-1.93v-3.96l-1.91,1.15v2.81h-1.41v1.49h1.41v6.52c0,1.15.08,1.91.24,2.26.16.36.43.65.81.87.39.22.92.33,1.62.33.43,0,.91-.06,1.45-.17l-.28-1.7c-.35.05-.63.08-.84.08Z"/>
    <path class="st1" d="M620.75,154.19c-.37.25-.78.79-1.22,1.59v-1.71h-1.73v11.33h1.92v-5.93c0-.81.11-1.56.32-2.24.14-.45.38-.8.71-1.05.33-.25.71-.38,1.13-.38.47,0,.94.14,1.41.42l.66-1.79c-.67-.41-1.33-.62-1.97-.62-.45,0-.86.13-1.23.39Z"/>
    <path class="st1" d="M634.27,160.64v-2.56c0-.85-.03-1.44-.09-1.77-.12-.53-.31-.96-.6-1.31-.29-.35-.73-.63-1.34-.86-.6-.23-1.39-.34-2.36-.34s-1.83.13-2.57.4c-.74.27-1.31.65-1.7,1.14-.39.49-.67,1.14-.84,1.94l1.87.26c.21-.81.52-1.37.95-1.68.43-.32,1.1-.47,2-.47.97,0,1.7.21,2.19.65.36.32.55.87.55,1.65,0,.07,0,.24-.01.5-.73.26-1.87.48-3.43.66-.76.09-1.33.19-1.7.29-.51.14-.97.35-1.38.63-.41.28-.74.65-.99,1.1-.25.46-.38.96-.38,1.52,0,.94.34,1.72,1,2.33.67.61,1.62.91,2.87.91.75,0,1.46-.12,2.12-.37.65-.25,1.34-.68,2.05-1.28.05.54.19,1,.38,1.4h2.01c-.24-.43-.4-.89-.48-1.36-.08-.47-.12-1.6-.12-3.39ZM632.33,160.41c0,.85-.1,1.49-.31,1.92-.27.56-.7,1.01-1.27,1.33-.57.32-1.23.48-1.97.48s-1.31-.17-1.7-.51c-.39-.34-.58-.77-.58-1.28,0-.34.09-.64.27-.91.18-.28.43-.48.76-.63.32-.14.88-.27,1.67-.38,1.39-.2,2.44-.44,3.14-.73v.71Z"/>
    <path class="st1" d="M657.81,155.34c-.99-1.02-2.26-1.53-3.82-1.53-1.4,0-2.59.42-3.56,1.26-1.17,1.01-1.75,2.56-1.75,4.66,0,1.92.49,3.38,1.47,4.4.98,1.02,2.26,1.52,3.85,1.52.99,0,1.9-.23,2.74-.69.83-.46,1.47-1.11,1.91-1.95.44-.83.66-1.98.66-3.44,0-1.8-.49-3.21-1.48-4.23ZM656.37,162.98c-.63.73-1.43,1.09-2.38,1.09s-1.75-.36-2.39-1.08c-.63-.72-.95-1.81-.95-3.26s.32-2.53.95-3.25c.63-.72,1.43-1.08,2.39-1.08s1.74.36,2.37,1.08c.64.72.95,1.78.95,3.19,0,1.49-.32,2.59-.95,3.32Z"/>
    <path class="st1" d="M644.47,155.36c-.33-.46-.77-.84-1.3-1.13-.53-.29-1.14-.43-1.82-.43-.93,0-1.78.25-2.53.74-.75.49-1.32,1.19-1.7,2.12-.37.92-.56,1.95-.56,3.08s.21,2.18.62,3.08c.42.9,1.01,1.59,1.76,2.09.76.5,1.59.75,2.49.75,1.4,0,2.45-.56,3.17-1.69v1.43h1.78v-15.64h-1.91v5.61ZM643.75,163.04c-.59.68-1.3,1.03-2.14,1.03s-1.55-.36-2.17-1.08c-.61-.72-.92-1.8-.92-3.26s.29-2.6.86-3.3c.57-.7,1.29-1.04,2.14-1.04s1.61.36,2.21,1.09c.6.72.9,1.86.9,3.41,0,1.41-.29,2.46-.88,3.14Z"/>
    <path class="st1" d="M572.62,153.81c-1.44,0-2.6.66-3.5,1.98-.22-.63-.6-1.11-1.14-1.46-.53-.35-1.22-.52-2.06-.52-.75,0-1.43.17-2.02.51-.59.33-1.06.78-1.42,1.34v-1.59h-1.72v11.33h1.92v-5.88c0-1.03.1-1.82.31-2.37.2-.55.54-.96,1-1.25.46-.29.96-.43,1.5-.43.71,0,1.22.21,1.54.64.31.43.47,1.07.47,1.92v7.36h1.92v-6.58c0-1.16.27-2.01.79-2.54.53-.53,1.19-.8,1.99-.8.44,0,.83.11,1.15.31.32.21.55.48.68.82.12.34.19.89.19,1.66v7.14h1.91v-7.78c0-1.29-.3-2.25-.91-2.87-.6-.62-1.47-.94-2.59-.94Z"/>
    <path class="st1" d="M592.32,155.14c-.28-.4-.71-.72-1.29-.97-.57-.24-1.2-.37-1.88-.37-1.57,0-2.77.62-3.6,1.87v-1.61h-1.73v11.33h1.92v-6.19c0-1.45.3-2.44.89-2.96.6-.52,1.3-.78,2.12-.78.51,0,.96.12,1.34.35.38.23.64.54.79.93.15.39.22.98.22,1.75v6.89h1.92v-6.97c0-.89-.04-1.51-.11-1.87-.12-.55-.31-1.02-.6-1.42Z"/>
    <path class="st1" d="M607.74,159.41c-.53-.23-1.48-.53-2.84-.89-.94-.26-1.5-.42-1.7-.49-.33-.14-.58-.31-.73-.51-.16-.2-.24-.42-.24-.67,0-.39.19-.73.57-1.02.38-.29,1-.44,1.89-.44.75,0,1.32.16,1.73.49.41.33.66.78.74,1.37l1.88-.26c-.12-.73-.34-1.31-.66-1.76-.32-.44-.82-.78-1.49-1.04-.67-.26-1.45-.39-2.34-.39-.59,0-1.14.08-1.66.23-.51.15-.92.34-1.22.56-.4.28-.71.64-.94,1.07-.23.43-.35.9-.35,1.4,0,.55.14,1.06.42,1.52.28.46.7.82,1.24,1.08.54.26,1.52.57,2.93.92,1.05.26,1.7.48,1.96.65.38.25.57.59.57,1.03,0,.48-.22.9-.64,1.26-.43.36-1.08.54-1.96.54s-1.56-.2-2.04-.61c-.49-.41-.79-.99-.89-1.75l-1.9.3c.21,1.2.7,2.11,1.48,2.72.77.61,1.89.92,3.37.92.89,0,1.69-.15,2.39-.46.7-.31,1.24-.75,1.62-1.31.37-.57.56-1.17.56-1.81s-.15-1.2-.46-1.64c-.31-.44-.73-.78-1.27-1.01Z"/>
    <rect class="st1" x="578.98" y="149.75" width="1.92" height="2.21"/>
    <rect class="st1" x="595.98" y="149.75" width="1.92" height="2.21"/>
    <rect class="st1" x="595.98" y="154.06" width="1.92" height="11.33"/>
  </g>
  <path class="st1" d="M161.29,136.28c3.14-5.36,5.65-10.19,7.37-14.17.76-1.75,1.54-3.81,2.34-6.09-2.13,3.4-5.45,6.13-9.88,8.1-4.32,1.93-10.17,2.9-17.39,2.9-10.22,0-17.72-1.61-22.29-4.78-4.69-3.26-7.74-7.92-9.07-13.87l-.71-3.14,10.29-1.01c-4.95-4.32-9.82-8.78-14.51-13.5,2.64-1.75,5.04-3.36,7.24-4.87-.06-.6-.13-1.19-.13-1.82,0-4.24,1.23-7.96,3.65-11.07,2.34-3.04,5.6-5.32,9.65-6.79,2.45-.88,5.46-1.46,8.9-1.79.11-.2.22-.38.33-.58,2.68-5.17,3.98-10.57,3.98-16.16,0-10.03-4.33-18.61-12.98-25.8-8.69-7.16-22.24-10.76-40.73-10.76s-31.58,3.75-40.51,11.33c-7.1,6.03-11.31,13.4-12.74,22.07h6.43v19.98h-4.77c.1.28.21.56.31.84h4.47v9.13c2.25,3.67,5.09,7.65,8.68,12.02-3.09,1.24-5.96,2.56-8.68,3.93v35.34H14.53v-12.27c-3.71,6.6-5.59,13.48-5.59,20.66,0,13.02,5.36,24.08,16.04,33.19,10.68,9.11,26.99,13.67,48.93,13.67,13.97,0,26.45-1.65,37.44-4.94,6.31-1.89,12.63-4.71,18.95-8.41,3.49,4.35,17.51,9.37,32.61,11.4l28.58-31.72c-14.25,2.41-25.53-2.86-30.2-11.04ZM77.93,39.79c2.91-2.68,6.7-4.06,11.33-4.06s8.42,1.22,11.1,3.67c2.68,2.41,4.02,5.4,4.02,8.88s-1.61,6.97-4.82,10.72c-3.22,3.79-7.77,7.27-13.67,10.49-8.23-8.81-12.33-15.54-12.33-20.18,0-3.68,1.45-6.85,4.36-9.53ZM79.5,151.74c-7.54,0-13.67-2.15-18.38-6.39-4.71-4.29-7.08-9.15-7.08-14.59,0-3.52,1.03-6.85,3.1-9.99,2.03-3.14,6.2-6.93,12.48-11.33,15.2,14.36,27.64,25.27,37.37,32.77-10.18,6.36-19.33,9.53-27.49,9.53Z"/>
  <path class="st0" d="M115.16,107.74l20.15-1.97c.83,2.48,1.99,4.26,3.49,5.31,1.5,1.07,3.49,1.6,5.99,1.6,2.72,0,4.83-.6,6.33-1.81,1.16-.88,1.74-2.01,1.74-3.34,0-1.51-.77-2.67-2.28-3.5-1.11-.58-4.02-1.3-8.73-2.16-7.04-1.28-11.95-2.45-14.69-3.54-2.74-1.09-5.06-2.92-6.93-5.49-1.89-2.57-2.83-5.51-2.83-8.81,0-3.61,1.02-6.72,3.05-9.32,2.03-2.62,4.82-4.57,8.37-5.86,3.56-1.28,8.32-1.93,14.31-1.93,6.31,0,10.98.51,13.99,1.49,3.01,1,5.51,2.55,7.52,4.64,2.01,2.09,3.68,4.92,5.02,8.49l-19.25,1.97c-.51-1.76-1.33-3.04-2.5-3.87-1.6-1.11-3.52-1.65-5.79-1.65s-3.97.42-5,1.27c-1.06.84-1.57,1.86-1.57,3.06,0,1.35.66,2.36,1.99,3.04,1.33.69,4.22,1.3,8.68,1.86,6.74.79,11.76,1.88,15.05,3.29,3.3,1.41,5.82,3.41,7.56,6.03,1.75,2.6,2.62,5.47,2.62,8.6s-.92,6.25-2.77,9.23c-1.84,2.99-4.75,5.37-8.72,7.12-3.98,1.78-9.39,2.66-16.24,2.66-9.67,0-16.56-1.43-20.66-4.27-4.1-2.85-6.74-6.91-7.91-12.15M17.38,68.16h20.3v54.72h-20.3v-54.72ZM17.38,47.33h20.3v14.28h-20.3v-14.28Z"/>
</svg>